<svg width="2560" height="80" viewBox="0 0 2560 80" fill="none" xmlns="http://www.w3.org/2000/svg">
    <rect width="2560" height="80" fill="#27272A"/>
    <rect x="618" width="45" height="80" fill="#06B6D4"/>
    <path d="M11.5317 35.4626V45.0149" stroke="white" stroke-miterlimit="10"/>
    <path d="M16.1436 33.5522V46.9254" stroke="white" stroke-miterlimit="10"/>
    <path d="M21.9043 30.6865V49.791" stroke="white" stroke-miterlimit="10"/>
    <path d="M26.5156 29.2537V50.7462" stroke="white" stroke-miterlimit="10"/>
    <path d="M31.1289 24.9553V55.0449" stroke="white" stroke-miterlimit="10"/>
    <path d="M36.8887 27.3433V52.6567" stroke="white" stroke-miterlimit="10"/>
    <path d="M41.5005 30.6865V49.791" stroke="white" stroke-miterlimit="10"/>
    <path d="M46.1138 33.0747V47.4031" stroke="white" stroke-miterlimit="10"/>
    <path d="M51.8735 24.9553V55.0449" stroke="white" stroke-miterlimit="10"/>
    <path d="M56.4863 28.7761V51.2239" stroke="white" stroke-miterlimit="10"/>
    <path d="M61.0986 31.6418V48.8359" stroke="white" stroke-miterlimit="10"/>
    <path d="M66.8594 32.1194V48.3582" stroke="white" stroke-miterlimit="10"/>
    <path d="M71.4707 34.0298V46.4477" stroke="white" stroke-miterlimit="10"/>
    <path d="M76.084 32.5969V47.8805" stroke="white" stroke-miterlimit="10"/>
    <path d="M81.8442 33.5522V46.9254" stroke="white" stroke-miterlimit="10"/>
    <path d="M86.4556 33.5522V46.9254" stroke="white" stroke-miterlimit="10"/>
    <path d="M91.0688 29.7314V50.2688" stroke="white" stroke-miterlimit="10"/>
    <path d="M96.8281 31.1641V49.3133" stroke="white" stroke-miterlimit="10"/>
    <path d="M101.441 26.8657V53.1344" stroke="white" stroke-miterlimit="10"/>
    <path d="M106.054 24.4775V55.5223" stroke="white" stroke-miterlimit="10"/>
    <path d="M111.813 27.3433V52.6567" stroke="white" stroke-miterlimit="10"/>
    <path d="M116.426 24.9553V55.0449" stroke="white" stroke-miterlimit="10"/>
    <path d="M122.197 31.6418V48.8359" stroke="white" stroke-miterlimit="10"/>
    <path d="M126.798 34.5076V45.9703" stroke="white" stroke-miterlimit="10"/>
    <path d="M131.411 32.5969V47.8805" stroke="white" stroke-miterlimit="10"/>
    <path d="M137.183 28.7761V51.2239" stroke="white" stroke-miterlimit="10"/>
    <path d="M141.794 24V56" stroke="white" stroke-miterlimit="10"/>
    <path d="M146.396 24V56" stroke="white" stroke-miterlimit="10"/>
    <path d="M152.167 27.3433V52.6567" stroke="white" stroke-miterlimit="10"/>
    <path d="M156.78 30.6865V49.791" stroke="white" stroke-miterlimit="10"/>
    <path d="M161.392 34.9851V45.4926" stroke="white" stroke-miterlimit="10"/>
    <path d="M167.152 35.4626V45.0149" stroke="white" stroke-miterlimit="10"/>
    <path d="M171.765 33.5522V46.9254" stroke="white" stroke-miterlimit="10"/>
    <path d="M176.377 30.6865V49.791" stroke="white" stroke-miterlimit="10"/>
    <path d="M182.138 29.2537V50.7462" stroke="white" stroke-miterlimit="10"/>
    <path d="M186.749 24.9553V55.0449" stroke="white" stroke-miterlimit="10"/>
    <path d="M191.362 27.3433V52.6567" stroke="white" stroke-miterlimit="10"/>
    <path d="M197.123 30.6865V49.791" stroke="white" stroke-miterlimit="10"/>
    <path d="M201.735 33.0747V47.4031" stroke="white" stroke-miterlimit="10"/>
    <path d="M206.347 24.9553V55.0449" stroke="white" stroke-miterlimit="10"/>
    <path d="M212.107 28.7761V51.2239" stroke="white" stroke-miterlimit="10"/>
    <path d="M216.72 31.6418V48.8359" stroke="white" stroke-miterlimit="10"/>
    <path d="M221.332 32.1194V48.3582" stroke="white" stroke-miterlimit="10"/>
    <path d="M227.092 34.0298V46.4477" stroke="white" stroke-miterlimit="10"/>
    <path d="M231.705 32.5969V47.8805" stroke="white" stroke-miterlimit="10"/>
    <path d="M236.317 33.5522V46.9254" stroke="white" stroke-miterlimit="10"/>
    <path d="M242.077 33.5522V46.9254" stroke="white" stroke-miterlimit="10"/>
    <path d="M246.69 29.7314V50.2688" stroke="white" stroke-miterlimit="10"/>
    <path d="M251.302 31.1641V49.3133" stroke="white" stroke-miterlimit="10"/>
    <path d="M257.062 26.8657V53.1344" stroke="white" stroke-miterlimit="10"/>
    <path d="M261.675 24.4775V55.5223" stroke="white" stroke-miterlimit="10"/>
    <path d="M266.287 27.3433V52.6567" stroke="white" stroke-miterlimit="10"/>
    <path d="M272.047 24.9553V55.0449" stroke="white" stroke-miterlimit="10"/>
    <path d="M276.66 31.6418V48.8359" stroke="white" stroke-miterlimit="10"/>
    <path d="M281.272 34.5076V45.9703" stroke="white" stroke-miterlimit="10"/>
    <path d="M287.043 32.5969V47.8805" stroke="white" stroke-miterlimit="10"/>
    <path d="M291.645 28.7761V51.2239" stroke="white" stroke-miterlimit="10"/>
    <path d="M296.257 24V56" stroke="white" stroke-miterlimit="10"/>
    <path d="M302.028 24V56" stroke="white" stroke-miterlimit="10"/>
    <path d="M306.641 27.3433V52.6567" stroke="white" stroke-miterlimit="10"/>
    <path d="M311.242 30.6865V49.791" stroke="white" stroke-miterlimit="10"/>
    <path d="M317.013 34.9851V45.4926" stroke="white" stroke-miterlimit="10"/>
    <path d="M321.625 35.4626V45.0149" stroke="#22D3EE" stroke-miterlimit="10"/>
    <path d="M327.386 33.5522V46.9254" stroke="#22D3EE" stroke-miterlimit="10"/>
    <path d="M331.998 30.6865V49.791" stroke="#22D3EE" stroke-miterlimit="10"/>
    <path d="M336.611 29.2537V50.7462" stroke="#22D3EE" stroke-miterlimit="10"/>
    <path d="M342.371 24.9553V55.0449" stroke="#22D3EE" stroke-miterlimit="10"/>
    <path d="M346.983 27.3433V52.6567" stroke="#22D3EE" stroke-miterlimit="10"/>
    <path d="M351.596 30.6865V49.791" stroke="#22D3EE" stroke-miterlimit="10"/>
    <path d="M357.355 33.0747V47.4031" stroke="#22D3EE" stroke-miterlimit="10"/>
    <path d="M361.968 24.9553V55.0449" stroke="#22D3EE" stroke-miterlimit="10"/>
    <path d="M366.581 28.7761V51.2239" stroke="#22D3EE" stroke-miterlimit="10"/>
    <path d="M372.341 31.6418V48.8359" stroke="#22D3EE" stroke-miterlimit="10"/>
    <path d="M376.953 32.1194V48.3582" stroke="#22D3EE" stroke-miterlimit="10"/>
    <path d="M381.565 34.0298V46.4477" stroke="#22D3EE" stroke-miterlimit="10"/>
    <path d="M387.326 32.5969V47.8805" stroke="#22D3EE" stroke-miterlimit="10"/>
    <path d="M391.938 33.5522V46.9254" stroke="#22D3EE" stroke-miterlimit="10"/>
    <path d="M396.55 33.5522V46.9254" stroke="#22D3EE" stroke-miterlimit="10"/>
    <path d="M402.311 29.7314V50.2688" stroke="#22D3EE" stroke-miterlimit="10"/>
    <path d="M406.923 26.3882V53.6121" stroke="#22D3EE" stroke-miterlimit="10"/>
    <path d="M411.535 26.8657V53.1344" stroke="#22D3EE" stroke-miterlimit="10"/>
    <path d="M417.296 29.7314V50.2688" stroke="#22D3EE" stroke-miterlimit="10"/>
    <path d="M421.908 35.9404V44.5374" stroke="#22D3EE" stroke-miterlimit="10"/>
    <path d="M0 40.2388H433.439"  stroke="black" stroke-miterlimit="10"/>
    <path d="M444.971 35.4626V45.0149" stroke="#22D3EE" stroke-miterlimit="10"/>
    <path d="M449.583 33.5522V46.9254" stroke="#22D3EE" stroke-miterlimit="10"/>
    <path d="M455.343 30.6865V49.791" stroke="#22D3EE" stroke-miterlimit="10"/>
    <path d="M459.955 29.2537V50.7462" stroke="#22D3EE" stroke-miterlimit="10"/>
    <path d="M464.568 24.9553V55.0449" stroke="#22D3EE" stroke-miterlimit="10"/>
    <path d="M470.328 27.3433V52.6567" stroke="#22D3EE" stroke-miterlimit="10"/>
    <path d="M474.939 30.6865V49.791" stroke="#22D3EE" stroke-miterlimit="10"/>
    <path d="M479.553 33.0747V47.4031" stroke="#22D3EE" stroke-miterlimit="10"/>
    <path d="M485.312 24.9553V55.0449" stroke="#22D3EE" stroke-miterlimit="10"/>
    <path d="M489.925 28.7761V51.2239" stroke="#22D3EE" stroke-miterlimit="10"/>
    <path d="M494.538 31.6418V48.8359" stroke="#22D3EE" stroke-miterlimit="10"/>
    <path d="M500.298 32.1194V48.3582" stroke="#22D3EE" stroke-miterlimit="10"/>
    <path d="M504.91 34.0298V46.4477" stroke="#22D3EE" stroke-miterlimit="10"/>
    <path d="M509.523 32.5969V47.8805" stroke="#22D3EE" stroke-miterlimit="10"/>
    <path d="M515.283 33.5522V46.9254" stroke="#22D3EE" stroke-miterlimit="10"/>
    <path d="M519.895 33.5522V46.9254" stroke="#22D3EE" stroke-miterlimit="10"/>
    <path d="M524.508 29.7314V50.2688" stroke="#22D3EE" stroke-miterlimit="10"/>
    <path d="M530.267 31.1641V49.3133" stroke="#22D3EE" stroke-miterlimit="10"/>
    <path d="M534.88 26.8657V53.1344" stroke="#22D3EE" stroke-miterlimit="10"/>
    <path d="M539.493 24.4775V55.5223" stroke="#22D3EE" stroke-miterlimit="10"/>
    <path d="M545.252 27.3433V52.6567" stroke="#22D3EE" stroke-miterlimit="10"/>
    <path d="M549.865 24.9553V55.0449" stroke="#22D3EE" stroke-miterlimit="10"/>
    <path d="M555.636 31.6418V48.8359" stroke="#22D3EE" stroke-miterlimit="10"/>
    <path d="M560.237 34.5076V45.9703" stroke="#22D3EE" stroke-miterlimit="10"/>
    <path d="M564.85 32.5969V47.8805" stroke="#22D3EE" stroke-miterlimit="10"/>
    <path d="M570.622 28.7761V51.2239" stroke="#22D3EE" stroke-miterlimit="10"/>
    <path d="M575.233 24V56" stroke="#22D3EE" stroke-miterlimit="10"/>
    <path d="M579.835 24V56" stroke="#22D3EE" stroke-miterlimit="10"/>
    <path d="M585.606 27.3433V52.6567" stroke="#22D3EE" stroke-miterlimit="10"/>
    <path d="M590.219 30.6865V49.791" stroke="#22D3EE" stroke-miterlimit="10"/>
    <path d="M594.831 34.9851V45.4926" stroke="#22D3EE" stroke-miterlimit="10"/>
    <path d="M600.591 35.4626V45.0149" stroke="#22D3EE" stroke-miterlimit="10"/>
    <path d="M605.204 33.5522V46.9254" stroke="#22D3EE" stroke-miterlimit="10"/>
    <path d="M609.816 30.6865V49.791" stroke="#22D3EE" stroke-miterlimit="10"/>
    <path d="M615.577 29.2537V50.7462" stroke="#22D3EE" stroke-miterlimit="10"/>
    <path d="M620.188 24.9553V55.0449" stroke="#22D3EE" stroke-miterlimit="10"/>
    <path d="M624.801 27.3433V52.6567" stroke="#22D3EE" stroke-miterlimit="10"/>
    <path d="M630.562 30.6865V49.791" stroke="#22D3EE" stroke-miterlimit="10"/>
    <path d="M635.174 33.0747V47.4031" stroke="#22D3EE" stroke-miterlimit="10"/>
    <path d="M639.786 24.9553V55.0449" stroke="#22D3EE" stroke-miterlimit="10"/>
    <path d="M645.546 28.7761V51.2239" stroke="#22D3EE" stroke-miterlimit="10"/>
    <path d="M650.159 31.6418V48.8359" stroke="#22D3EE" stroke-miterlimit="10"/>
    <path d="M654.771 32.1194V48.3582" stroke="#22D3EE" stroke-miterlimit="10"/>
    <path d="M660.531 34.0298V46.4477" stroke="#22D3EE" stroke-miterlimit="10"/>
    <path d="M665.144 32.5969V47.8805" stroke="#22D3EE" stroke-miterlimit="10"/>
    <path d="M669.756 33.5522V46.9254" stroke="#22D3EE" stroke-miterlimit="10"/>
    <path d="M675.516 33.5522V46.9254" stroke="#22D3EE" stroke-miterlimit="10"/>
    <path d="M680.129 29.7314V50.2688" stroke="#22D3EE" stroke-miterlimit="10"/>
    <path d="M684.741 31.1641V49.3133" stroke="#22D3EE" stroke-miterlimit="10"/>
    <path d="M690.501 26.8657V53.1344" stroke="#22D3EE" stroke-miterlimit="10"/>
    <path d="M695.114 24.4775V55.5223" stroke="#22D3EE" stroke-miterlimit="10"/>
    <path d="M699.726 27.3433V52.6567" stroke="#22D3EE" stroke-miterlimit="10"/>
    <path d="M705.486 24.9553V55.0449" stroke="#22D3EE" stroke-miterlimit="10"/>
    <path d="M710.099 31.6418V48.8359" stroke="#22D3EE" stroke-miterlimit="10"/>
    <path d="M714.711 34.5076V45.9703" stroke="#22D3EE" stroke-miterlimit="10"/>
    <path d="M720.482 32.5969V47.8805" stroke="#22D3EE" stroke-miterlimit="10"/>
    <path d="M725.084 28.7761V51.2239" stroke="#22D3EE" stroke-miterlimit="10"/>
    <path d="M729.696 24V56" stroke="#22D3EE" stroke-miterlimit="10"/>
    <path d="M735.467 24V56" stroke="#22D3EE" stroke-miterlimit="10"/>
    <path d="M740.08 27.3433V52.6567" stroke="#22D3EE" stroke-miterlimit="10"/>
    <path d="M744.681 30.6865V49.791" stroke="#22D3EE" stroke-miterlimit="10"/>
    <path d="M750.452 34.9851V45.4926" stroke="#22D3EE" stroke-miterlimit="10"/>
    <path d="M755.064 35.4626V45.0149" stroke="#22D3EE" stroke-miterlimit="10"/>
    <path d="M760.825 33.5522V46.9254" stroke="#22D3EE" stroke-miterlimit="10"/>
    <path d="M765.437 30.6865V49.791" stroke="#22D3EE" stroke-miterlimit="10"/>
    <path d="M770.05 29.2537V50.7462" stroke="#22D3EE" stroke-miterlimit="10"/>
    <path d="M775.81 24.9553V55.0449" stroke="#22D3EE" stroke-miterlimit="10"/>
    <path d="M780.422 27.3433V52.6567" stroke="#22D3EE" stroke-miterlimit="10"/>
    <path d="M785.035 30.6865V49.791" stroke="#22D3EE" stroke-miterlimit="10"/>
    <path d="M790.794 33.0747V47.4031" stroke="#22D3EE" stroke-miterlimit="10"/>
    <path d="M795.407 24.9553V55.0449" stroke="#22D3EE" stroke-miterlimit="10"/>
    <path d="M800.02 28.7761V51.2239" stroke="#22D3EE" stroke-miterlimit="10"/>
    <path d="M805.78 31.6418V48.8359" stroke="#22D3EE" stroke-miterlimit="10"/>
    <path d="M810.392 32.1194V48.3582" stroke="#22D3EE" stroke-miterlimit="10"/>
    <path d="M815.004 34.0298V46.4477" stroke="#22D3EE" stroke-miterlimit="10"/>
    <path d="M820.765 32.5969V47.8805" stroke="#22D3EE" stroke-miterlimit="10"/>
    <path d="M826.243 40.2388H826.243" stroke="black" stroke-miterlimit="10"/>
    <path d="M837.775 35.4626V45.0149" stroke="#22D3EE" stroke-miterlimit="10"/>
    <path d="M842.387 33.5522V46.9254" stroke="#22D3EE" stroke-miterlimit="10"/>
    <path d="M848.147 30.6865V49.791" stroke="#22D3EE" stroke-miterlimit="10"/>
    <path d="M852.759 29.2537V50.7462" stroke="#22D3EE" stroke-miterlimit="10"/>
    <path d="M857.372 24.9553V55.0449" stroke="#22D3EE" stroke-miterlimit="10"/>
    <path d="M863.132 27.3433V52.6567" stroke="#22D3EE" stroke-miterlimit="10"/>
    <path d="M867.744 30.6865V49.791" stroke="#22D3EE" stroke-miterlimit="10"/>
    <path d="M872.357 33.0747V47.4031" stroke="#22D3EE" stroke-miterlimit="10"/>
    <path d="M878.117 24.9553V55.0449" stroke="#22D3EE" stroke-miterlimit="10"/>
    <path d="M882.729 28.7761V51.2239" stroke="#22D3EE" stroke-miterlimit="10"/>
    <path d="M887.342 31.6418V48.8359" stroke="#22D3EE" stroke-miterlimit="10"/>
    <path d="M893.103 32.1194V48.3582" stroke="#22D3EE" stroke-miterlimit="10"/>
    <path d="M897.714 34.0298V46.4477" stroke="#22D3EE" stroke-miterlimit="10"/>
    <path d="M902.327 32.5969V47.8805" stroke="#22D3EE" stroke-miterlimit="10"/>
    <path d="M908.087 33.5522V46.9254" stroke="#22D3EE" stroke-miterlimit="10"/>
    <path d="M912.699 33.5522V46.9254" stroke="#22D3EE" stroke-miterlimit="10"/>
    <path d="M917.312 29.7314V50.2688" stroke="#22D3EE" stroke-miterlimit="10"/>
    <path d="M923.071 31.1641V49.3133" stroke="#22D3EE" stroke-miterlimit="10"/>
    <path d="M927.685 26.8657V53.1344" stroke="#22D3EE" stroke-miterlimit="10"/>
    <path d="M932.297 24.4775V55.5223" stroke="#22D3EE" stroke-miterlimit="10"/>
    <path d="M938.057 27.3433V52.6567" stroke="#22D3EE" stroke-miterlimit="10"/>
    <path d="M942.669 24.9553V55.0449" stroke="#22D3EE" stroke-miterlimit="10"/>
    <path d="M948.44 31.6418V48.8359" stroke="#22D3EE" stroke-miterlimit="10"/>
    <path d="M953.042 34.5076V45.9703" stroke="#22D3EE" stroke-miterlimit="10"/>
    <path d="M957.654 32.5969V47.8805" stroke="#22D3EE" stroke-miterlimit="10"/>
    <path d="M963.426 28.7761V51.2239" stroke="#22D3EE" stroke-miterlimit="10"/>
    <path d="M968.037 24V56" stroke="#22D3EE" stroke-miterlimit="10"/>
    <path d="M972.64 24V56" stroke="#22D3EE" stroke-miterlimit="10"/>
    <path d="M978.41 27.3433V52.6567" stroke="#22D3EE" stroke-miterlimit="10"/>
    <path d="M983.023 30.6865V49.791" stroke="#22D3EE" stroke-miterlimit="10"/>
    <path d="M987.635 34.9851V45.4926" stroke="#22D3EE" stroke-miterlimit="10"/>
    <path d="M993.395 35.4626V45.0149" stroke="#22D3EE" stroke-miterlimit="10"/>
    <path d="M998.008 33.5522V46.9254" stroke="#22D3EE" stroke-miterlimit="10"/>
    <path d="M1002.62 30.6865V49.791" stroke="#22D3EE" stroke-miterlimit="10"/>
    <path d="M1008.38 29.2537V50.7462" stroke="#22D3EE" stroke-miterlimit="10"/>
    <path d="M1012.99 24.9553V55.0449" stroke="#22D3EE" stroke-miterlimit="10"/>
    <path d="M1017.61 27.3433V52.6567" stroke="#22D3EE" stroke-miterlimit="10"/>
    <path d="M1023.37 30.6865V49.791" stroke="#22D3EE" stroke-miterlimit="10"/>
    <path d="M1027.98 33.0747V47.4031" stroke="#22D3EE" stroke-miterlimit="10"/>
    <path d="M1032.59 24.9553V55.0449" stroke="#22D3EE" stroke-miterlimit="10"/>
    <path d="M1038.35 28.7761V51.2239" stroke="#22D3EE" stroke-miterlimit="10"/>
    <path d="M1042.96 31.6418V48.8359" stroke="#22D3EE" stroke-miterlimit="10"/>
    <path d="M1047.58 32.1194V48.3582" stroke="#22D3EE" stroke-miterlimit="10"/>
    <path d="M1053.33 34.0298V46.4477" stroke="#22D3EE" stroke-miterlimit="10"/>
    <path d="M1057.95 32.5969V47.8805" stroke="#22D3EE" stroke-miterlimit="10"/>
    <path d="M1062.56 33.5522V46.9254" stroke="#22D3EE" stroke-miterlimit="10"/>
    <path d="M1068.32 33.5522V46.9254" stroke="#22D3EE" stroke-miterlimit="10"/>
    <path d="M1072.93 29.7314V50.2688" stroke="#22D3EE" stroke-miterlimit="10"/>
    <path d="M1077.54 31.1641V49.3133" stroke="#22D3EE" stroke-miterlimit="10"/>
    <path d="M1083.31 26.8657V53.1344" stroke="#22D3EE" stroke-miterlimit="10"/>
    <path d="M1087.92 24.4775V55.5223" stroke="#22D3EE" stroke-miterlimit="10"/>
    <path d="M1092.53 27.3433V52.6567" stroke="#22D3EE" stroke-miterlimit="10"/>
    <path d="M1098.29 24.9553V55.0449" stroke="#22D3EE" stroke-miterlimit="10"/>
    <path d="M1102.9 31.6418V48.8359" stroke="#22D3EE" stroke-miterlimit="10"/>
    <path d="M1107.52 34.5076V45.9703" stroke="#22D3EE" stroke-miterlimit="10"/>
    <path d="M1113.29 32.5969V47.8805" stroke="#22D3EE" stroke-miterlimit="10"/>
    <path d="M1117.89 28.7761V51.2239" stroke="#22D3EE" stroke-miterlimit="10"/>
    <path d="M1122.5 24V56" stroke="#22D3EE" stroke-miterlimit="10"/>
    <path d="M1128.27 24V56" stroke="#22D3EE" stroke-miterlimit="10"/>
    <path d="M1132.88 27.3433V52.6567" stroke="#22D3EE" stroke-miterlimit="10"/>
    <path d="M1137.48 30.6865V49.791" stroke="#22D3EE" stroke-miterlimit="10"/>
    <path d="M1143.26 34.9851V45.4926" stroke="#22D3EE" stroke-miterlimit="10"/>
    <path d="M1147.87 35.4626V45.0149" stroke="#22D3EE" stroke-miterlimit="10"/>
    <path d="M1153.63 33.5522V46.9254" stroke="#22D3EE" stroke-miterlimit="10"/>
    <path d="M1158.24 30.6865V49.791" stroke="#22D3EE" stroke-miterlimit="10"/>
    <path d="M1162.85 29.2537V50.7462" stroke="#22D3EE" stroke-miterlimit="10"/>
    <path d="M1168.61 24.9553V55.0449" stroke="#22D3EE" stroke-miterlimit="10"/>
    <path d="M1173.23 27.3433V52.6567" stroke="#22D3EE" stroke-miterlimit="10"/>
    <path d="M1177.84 30.6865V49.791" stroke="#22D3EE" stroke-miterlimit="10"/>
    <path d="M1183.6 33.0747V47.4031" stroke="#22D3EE" stroke-miterlimit="10"/>
    <path d="M1188.21 24.9553V55.0449" stroke="#22D3EE" stroke-miterlimit="10"/>
    <path d="M1192.82 28.7761V51.2239" stroke="#22D3EE" stroke-miterlimit="10"/>
    <path d="M1198.58 31.6418V48.8359" stroke="#22D3EE" stroke-miterlimit="10"/>
    <path d="M1203.2 32.1194V48.3582" stroke="#22D3EE" stroke-miterlimit="10"/>
    <path d="M1207.81 34.0298V46.4477" stroke="#22D3EE" stroke-miterlimit="10"/>
    <path d="M1213.57 32.5969V47.8805" stroke="#22D3EE" stroke-miterlimit="10"/>
    <path d="M12 80.2388H433.439"  stroke="black" stroke-miterlimit="10"/>

    <path d="M1218.18 33.5522V46.9254" stroke="#22D3EE" stroke-miterlimit="10"/>
    <path d="M1223.9 33.5522V46.9254" stroke="#22D3EE" stroke-miterlimit="10"/>
    <path d="M1228.51 29.7314V50.2688" stroke="#22D3EE" stroke-miterlimit="10"/>
    <path d="M1233.12 31.1641V49.3133" stroke="#22D3EE" stroke-miterlimit="10"/>
    <path d="M1238.88 26.8657V53.1344" stroke="#22D3EE" stroke-miterlimit="10"/>
    <path d="M1243.49 24.4775V55.5223" stroke="#22D3EE" stroke-miterlimit="10"/>
    <path d="M1248.1 27.3433V52.6567" stroke="#22D3EE" stroke-miterlimit="10"/>
    <path d="M1253.86 24.9553V55.0449" stroke="#22D3EE" stroke-miterlimit="10"/>
    <path d="M1258.47 31.6418V48.8359" stroke="#22D3EE" stroke-miterlimit="10"/>
    <path d="M1263.09 34.5076V45.9703" stroke="#22D3EE" stroke-miterlimit="10"/>
    <path d="M1268.86 32.5969V47.8805" stroke="#22D3EE" stroke-miterlimit="10"/>
    <path d="M1273.47 28.7761V51.2239" stroke="#22D3EE" stroke-miterlimit="10"/>
    <path d="M1278.08 24V56" stroke="#22D3EE" stroke-miterlimit="10"/>
    <path d="M1283.27 24V56" stroke="#22D3EE" stroke-miterlimit="10"/>
    <path d="M1288.08 27.3433V52.6567" stroke="#22D3EE" stroke-miterlimit="10"/>
    <path d="M1292.69 30.6865V49.791" stroke="#22D3EE" stroke-miterlimit="10"/>
    <path d="M1298.47 34.9851V45.4926" stroke="#22D3EE" stroke-miterlimit="10"/>
    <path d="M1303.08 35.4626V45.0149" stroke="#22D3EE" stroke-miterlimit="10"/>
    <path d="M1308.69 33.5522V46.9254" stroke="#22D3EE" stroke-miterlimit="10"/>
    <path d="M1313.3 30.6865V49.791" stroke="#22D3EE" stroke-miterlimit="10"/>
    <path d="M1318.01 29.2537V50.7462" stroke="#22D3EE" stroke-miterlimit="10"/>
    <path d="M1322.62 24.9553V55.0449" stroke="#22D3EE" stroke-miterlimit="10"/>
    <path d="M1327.23 27.3433V52.6567" stroke="#22D3EE" stroke-miterlimit="10"/>
    <path d="M1331.84 30.6865V49.791" stroke="#22D3EE" stroke-miterlimit="10"/>
    <path d="M1336.46 33.0747V47.4031" stroke="#22D3EE" stroke-miterlimit="10"/>
    <path d="M1341.07 24.9553V55.0449" stroke="#22D3EE" stroke-miterlimit="10"/>
    <path d="M1345.68 28.7761V51.2239" stroke="#22D3EE" stroke-miterlimit="10"/>
    <path d="M1351.44 31.6418V48.8359" stroke="#22D3EE" stroke-miterlimit="10"/>
    <path d="M1356.06 32.1194V48.3582" stroke="#22D3EE" stroke-miterlimit="10"/>
    <path d="M1361.33 34.0298V46.4477" stroke="#22D3EE" stroke-miterlimit="10"/>
    <path d="M1365.95 32.5969V47.8805" stroke="#22D3EE" stroke-miterlimit="10"/>
    <path d="M1370.56 33.5522V46.9254" stroke="#22D3EE" stroke-miterlimit="10"/>
    <path d="M1376.32 33.5522V46.9254" stroke="#22D3EE" stroke-miterlimit="10"/>
    <path d="M1380.93 29.7314V50.2688" stroke="#22D3EE" stroke-miterlimit="10"/>
    <path d="M1385.54 31.1641V49.3133" stroke="#22D3EE" stroke-miterlimit="10"/>
    <path d="M1391.31 26.8657V53.1344" stroke="#22D3EE" stroke-miterlimit="10"/>
    <path d="M1395.92 24.4775V55.5223" stroke="#22D3EE" stroke-miterlimit="10"/>
    <path d="M1400.53 27.3433V52.6567" stroke="#22D3EE" stroke-miterlimit="10"/>
    <path d="M1406.29 24.9553V55.0449" stroke="#22D3EE" stroke-miterlimit="10"/>
    <path d="M1410.9 31.6418V48.8359" stroke="#22D3EE" stroke-miterlimit="10"/>
    <path d="M1415.52 34.5076V45.9703" stroke="#22D3EE" stroke-miterlimit="10"/>
    <path d="M1421.29 32.5969V47.8805" stroke="#22D3EE" stroke-miterlimit="10"/>
    <path d="M1425.89 28.7761V51.2239" stroke="#22D3EE" stroke-miterlimit="10"/>
    <path d="M1430.5 24V56" stroke="#22D3EE" stroke-miterlimit="10"/>
    <path d="M1436.27 24V56" stroke="#22D3EE" stroke-miterlimit="10"/>
    <path d="M1440.88 27.3433V52.6567" stroke="#22D3EE" stroke-miterlimit="10"/>
    <path d="M1445.49 30.6865V49.791" stroke="#22D3EE" stroke-miterlimit="10"/>
    <path d="M1451.27 34.9851V45.4926" stroke="#22D3EE" stroke-miterlimit="10"/>
    <path d="M1455.88 35.4626V45.0149" stroke="#22D3EE" stroke-miterlimit="10"/>
    <path d="M1461.63 33.5522V46.9254" stroke="#22D3EE" stroke-miterlimit="10"/>
    <path d="M1466.24 30.6865V49.791" stroke="#22D3EE" stroke-miterlimit="10"/>
    <path d="M1471.95 29.2537V50.7462" stroke="#22D3EE" stroke-miterlimit="10"/>
    <path d="M1476.56 24.9553V55.0449" stroke="#22D3EE" stroke-miterlimit="10"/>
    <path d="M1481.18 27.3433V52.6567" stroke="#22D3EE" stroke-miterlimit="10"/>
    <path d="M1485.79 30.6865V49.791" stroke="#22D3EE" stroke-miterlimit="10"/>
    <path d="M1491.56 33.0747V47.4031" stroke="#22D3EE" stroke-miterlimit="10"/>
    <path d="M1496.17 24.9553V55.0449" stroke="#22D3EE" stroke-miterlimit="10"/>
    <path d="M1500.78 28.7761V51.2239" stroke="#22D3EE" stroke-miterlimit="10"/>
    <path d="M1506.54 31.6418V48.8359" stroke="#22D3EE" stroke-miterlimit="10"/>
    <path d="M1511.16 32.1194V48.3582" stroke="#22D3EE" stroke-miterlimit="10"/>
    <path d="M1515.77 34.0298V46.4477" stroke="#22D3EE" stroke-miterlimit="10"/>
    <path d="M1520.49 32.5969V47.8805" stroke="#22D3EE" stroke-miterlimit="10"/>
    <path d="M1525.1 33.5522V46.9254" stroke="#22D3EE" stroke-miterlimit="10"/>
    <path d="M1530.86 33.5522V46.9254" stroke="#22D3EE" stroke-miterlimit="10"/>
    <path d="M1535.47 29.7314V50.2688" stroke="#22D3EE" stroke-miterlimit="10"/>
    <path d="M1540.08 31.1641V49.3133" stroke="#22D3EE" stroke-miterlimit="10"/>
    <path d="M1545.84 26.8657V53.1344" stroke="#22D3EE" stroke-miterlimit="10"/>
    <path d="M1550.45 24.4775V55.5223" stroke="#22D3EE" stroke-miterlimit="10"/>
    <path d="M1555.06 27.3433V52.6567" stroke="#22D3EE" stroke-miterlimit="10"/>
    <path d="M1560.82 24.9553V55.0449" stroke="#22D3EE" stroke-miterlimit="10"/>
    <path d="M1565.43 31.6418V48.8359" stroke="#22D3EE" stroke-miterlimit="10"/>
    <path d="M1570.05 34.5076V45.9703" stroke="#22D3EE" stroke-miterlimit="10"/>
    <path d="M1575.82 32.5969V47.8805" stroke="#22D3EE" stroke-miterlimit="10"/>
    <path d="M1580.43 28.7761V51.2239" stroke="#22D3EE" stroke-miterlimit="10"/>
    <path d="M1585.04 24V56" stroke="#22D3EE" stroke-miterlimit="10"/>
    <path d="M1590.27 24V56" stroke="#22D3EE" stroke-miterlimit="10"/>
    <path d="M1595.08 27.3433V52.6567" stroke="#22D3EE" stroke-miterlimit="10"/>
    <path d="M1600.69 30.6865V49.791" stroke="#22D3EE" stroke-miterlimit="10"/>
    <path d="M1606.47 34.9851V45.4926" stroke="#22D3EE" stroke-miterlimit="10"/>
    <path d="M1611.08 35.4626V45.0149" stroke="#22D3EE" stroke-miterlimit="10"/>
    <path d="M1616.69 33.5522V46.9254" stroke="#22D3EE" stroke-miterlimit="10"/>
    <path d="M1621.3 30.6865V49.791" stroke="#22D3EE" stroke-miterlimit="10"/>
    <path d="M1626.01 29.2537V50.7462" stroke="#22D3EE" stroke-miterlimit="10"/>
    <path d="M1630.62 24.9553V55.0449" stroke="#22D3EE" stroke-miterlimit="10"/>
    <path d="M1635.23 27.3433V52.6567" stroke="#22D3EE" stroke-miterlimit="10"/>
    <path d="M1640.04 30.6865V49.791" stroke="#22D3EE" stroke-miterlimit="10"/>
    <path d="M1644.65 33.0747V47.4031" stroke="#22D3EE" stroke-miterlimit="10"/>
    <path d="M1649.26 24.9553V55.0449" stroke="#22D3EE" stroke-miterlimit="10"/>
    <path d="M1653.87 28.7761V51.2239" stroke="#22D3EE" stroke-miterlimit="10"/>
    <path d="M1659.58 31.6418V48.8359" stroke="#22D3EE" stroke-miterlimit="10"/>
    <path d="M1664.19 32.1194V48.3582" stroke="#22D3EE" stroke-miterlimit="10"/>
    <path d="M1668.8 34.0298V46.4477" stroke="#22D3EE" stroke-miterlimit="10"/>
    <path d="M1673.51 32.5969V47.8805" stroke="#22D3EE" stroke-miterlimit="10"/>
    <path d="M1678.12 33.5522V46.9254" stroke="#22D3EE" stroke-miterlimit="10"/>
    <path d="M1683.88 33.5522V46.9254" stroke="#22D3EE" stroke-miterlimit="10"/>
    <path d="M1688.49 29.7314V50.2688" stroke="#22D3EE" stroke-miterlimit="10"/>
    <path d="M1693.1 31.1641V49.3133" stroke="#22D3EE" stroke-miterlimit="10"/>
    <path d="M1698.86 26.8657V53.1344" stroke="#22D3EE" stroke-miterlimit="10"/>
    <path d="M1703.47 24.4775V55.5223" stroke="#22D3EE" stroke-miterlimit="10"/>
    <path d="M1708.08 27.3433V52.6567" stroke="#22D3EE" stroke-miterlimit="10"/>
    <path d="M1713.84 24.9553V55.0449" stroke="#22D3EE" stroke-miterlimit="10"/>
    <path d="M1718.45 31.6418V48.8359" stroke="#22D3EE" stroke-miterlimit="10"/>
    <path d="M1723.06 34.5076V45.9703" stroke="#22D3EE" stroke-miterlimit="10"/>
    <path d="M1728.83 32.5969V47.8805" stroke="#22D3EE" stroke-miterlimit="10"/>
    <path d="M1733.44 28.7761V51.2239" stroke="#22D3EE" stroke-miterlimit="10"/>
    <path d="M1738.05 24V56" stroke="#22D3EE" stroke-miterlimit="10"/>
    <path d="M1743.27 24V56" stroke="#22D3EE" stroke-miterlimit="10"/>
    <path d="M1748.08 27.3433V52.6567" stroke="#22D3EE" stroke-miterlimit="10"/>
    <path d="M1752.69 30.6865V49.791" stroke="#22D3EE" stroke-miterlimit="10"/>
    <path d="M1758.47 34.9851V45.4926" stroke="#22D3EE" stroke-miterlimit="10"/>
    <path d="M1763.08 35.4626V45.0149" stroke="#22D3EE" stroke-miterlimit="10"/>
    <path d="M1768.69 33.5522V46.9254" stroke="#22D3EE" stroke-miterlimit="10"/>
    <path d="M1773.3 30.6865V49.791" stroke="#22D3EE" stroke-miterlimit="10"/>
    <path d="M1778.01 29.2537V50.7462" stroke="#22D3EE" stroke-miterlimit="10"/>
    <path d="M1782.62 24.9553V55.0449" stroke="#22D3EE" stroke-miterlimit="10"/>
    <path d="M1787.23 27.3433V52.6567" stroke="#22D3EE" stroke-miterlimit="10"/>
    <path d="M1791.84 30.6865V49.791" stroke="#22D3EE" stroke-miterlimit="10"/>
    <path d="M1796.46 33.0747V47.4031" stroke="#22D3EE" stroke-miterlimit="10"/>
    <path d="M1801.07 24.9553V55.0449" stroke="#22D3EE" stroke-miterlimit="10"/>
    <path d="M1805.68 28.7761V51.2239" stroke="#22D3EE" stroke-miterlimit="10"/>
    <path d="M1811.44 31.6418V48.8359" stroke="#22D3EE" stroke-miterlimit="10"/>
    <path d="M1816.06 32.1194V48.3582" stroke="#22D3EE" stroke-miterlimit="10"/>
    <path d="M1820.67 34.0298V46.4477" stroke="#22D3EE" stroke-miterlimit="10"/>
    <path d="M1825.39 32.5969V47.8805" stroke="#22D3EE" stroke-miterlimit="10"/>
    <path d="M1830 33.5522V46.9254" stroke="#22D3EE" stroke-miterlimit="10"/>
    <path d="M1835.76 33.5522V46.9254" stroke="#22D3EE" stroke-miterlimit="10"/>
    <path d="M1840.37 29.7314V50.2688" stroke="#22D3EE" stroke-miterlimit="10"/>
    <path d="M1845.08 31.1641V49.3133" stroke="#22D3EE" stroke-miterlimit="10"/>
    <path d="M1850.84 26.8657V53.1344" stroke="#22D3EE" stroke-miterlimit="10"/>
    <path d="M1855.45 24.4775V55.5223" stroke="#22D3EE" stroke-miterlimit="10"/>
    <path d="M1860.06 27.3433V52.6567" stroke="#22D3EE" stroke-miterlimit="10"/>
    <path d="M1865.82 24.9553V55.0449" stroke="#22D3EE" stroke-miterlimit="10"/>
    <path d="M1870.43 31.6418V48.8359" stroke="#22D3EE" stroke-miterlimit="10"/>
    <path d="M1875.04 34.5076V45.9703" stroke="#22D3EE" stroke-miterlimit="10"/>
    <path d="M1880.81 32.5969V47.8805" stroke="#22D3EE" stroke-miterlimit="10"/>
    <path d="M1885.43 28.7761V51.2239" stroke="#22D3EE" stroke-miterlimit="10"/>
    <path d="M1890.04 24V56" stroke="#22D3EE" stroke-miterlimit="10"/>
    <path d="M1895.27 24V56" stroke="#22D3EE" stroke-miterlimit="10"/>
    <path d="M1900.08 27.3433V52.6567" stroke="#22D3EE" stroke-miterlimit="10"/>
    <path d="M1905.69 30.6865V49.791" stroke="#22D3EE" stroke-miterlimit="10"/>
    <path d="M1911.47 34.9851V45.4926" stroke="#22D3EE" stroke-miterlimit="10"/>
    <path d="M1916.08 35.4626V45.0149" stroke="#22D3EE" stroke-miterlimit="10"/>
    <path d="M1921.69 33.5522V46.9254" stroke="#22D3EE" stroke-miterlimit="10"/>
    <path d="M1926.3 30.6865V49.791" stroke="#22D3EE" stroke-miterlimit="10"/>
    <path d="M1931.01 29.2537V50.7462" stroke="#22D3EE" stroke-miterlimit="10"/>
    <path d="M1935.62 24.9553V55.0449" stroke="#22D3EE" stroke-miterlimit="10"/>
    <path d="M1940.23 27.3433V52.6567" stroke="#22D3EE" stroke-miterlimit="10"/>
    <path d="M1944.84 30.6865V49.791" stroke="#22D3EE" stroke-miterlimit="10"/>
    <path d="M1949.56 33.0747V47.4031" stroke="#22D3EE" stroke-miterlimit="10"/>
    <path d="M1954.17 24.9553V55.0449" stroke="#22D3EE" stroke-miterlimit="10"/>
    <path d="M1958.78 28.7761V51.2239" stroke="#22D3EE" stroke-miterlimit="10"/>
    <path d="M1964.54 31.6418V48.8359" stroke="#22D3EE" stroke-miterlimit="10"/>
    <path d="M1969.16 32.1194V48.3582" stroke="#22D3EE" stroke-miterlimit="10"/>
    <path d="M1973.77 34.0298V46.4477" stroke="#22D3EE" stroke-miterlimit="10"/>
    <path d="M1978.49 32.5969V47.8805" stroke="#22D3EE" stroke-miterlimit="10"/>
    <path d="M1983.1 33.5522V46.9254" stroke="#22D3EE" stroke-miterlimit="10"/>
    <path d="M1988.86 33.5522V46.9254" stroke="#22D3EE" stroke-miterlimit="10"/>
    <path d="M1993.47 29.7314V50.2688" stroke="#22D3EE" stroke-miterlimit="10"/>
    <path d="M1998.08 31.1641V49.3133" stroke="#22D3EE" stroke-miterlimit="10"/>
    <path d="M2003.84 26.8657V53.1344" stroke="#22D3EE" stroke-miterlimit="10"/>
    <path d="M2008.45 24.4775V55.5223" stroke="#22D3EE" stroke-miterlimit="10"/>
    <path d="M2013.06 27.3433V52.6567" stroke="#22D3EE" stroke-miterlimit="10"/>
    <path d="M2018.82 24.9553V55.0449" stroke="#22D3EE" stroke-miterlimit="10"/>
    <path d="M2023.43 31.6418V48.8359" stroke="#22D3EE" stroke-miterlimit="10"/>
    <path d="M2028.04 34.5076V45.9703" stroke="#22D3EE" stroke-miterlimit="10"/>
    <path d="M2033.81 32.5969V47.8805" stroke="#22D3EE" stroke-miterlimit="10"/>
    <path d="M2038.43 28.7761V51.2239" stroke="#22D3EE" stroke-miterlimit="10"/>
    <path d="M2043.04 24V56" stroke="#22D3EE" stroke-miterlimit="10"/>
    <path d="M2048.27 24V56" stroke="#22D3EE" stroke-miterlimit="10"/>
    <path d="M2053.08 27.3433V52.6567" stroke="#22D3EE" stroke-miterlimit="10"/>
    <path d="M2057.69 30.6865V49.791" stroke="#22D3EE" stroke-miterlimit="10"/>
    <path d="M2063.47 34.9851V45.4926" stroke="#22D3EE" stroke-miterlimit="10"/>
    <path d="M2068.08 35.4626V45.0149" stroke="#22D3EE" stroke-miterlimit="10"/>
    <path d="M2073.69 33.5522V46.9254" stroke="#22D3EE" stroke-miterlimit="10"/>
    <path d="M2078.3 30.6865V49.791" stroke="#22D3EE" stroke-miterlimit="10"/>
    <path d="M2083.01 29.2537V50.7462" stroke="#22D3EE" stroke-miterlimit="10"/>
    <path d="M2087.62 24.9553V55.0449" stroke="#22D3EE" stroke-miterlimit="10"/>
    <path d="M2092.23 27.3433V52.6567" stroke="#22D3EE" stroke-miterlimit="10"/>
    <path d="M2096.84 30.6865V49.791" stroke="#22D3EE" stroke-miterlimit="10"/>
    <path d="M2101.56 33.0747V47.4031" stroke="#22D3EE" stroke-miterlimit="10"/>
    <path d="M2106.17 24.9553V55.0449" stroke="#22D3EE" stroke-miterlimit="10"/>
    <path d="M2110.78 28.7761V51.2239" stroke="#22D3EE" stroke-miterlimit="10"/>
    <path d="M2116.54 31.6418V48.8359" stroke="#22D3EE" stroke-miterlimit="10"/>
    <path d="M2121.16 32.1194V48.3582" stroke="#22D3EE" stroke-miterlimit="10"/>
    <path d="M2125.77 34.0298V46.4477" stroke="#22D3EE" stroke-miterlimit="10"/>
    <path d="M2130.49 32.5969V47.8805" stroke="#22D3EE" stroke-miterlimit="10"/>
    <path d="M2135.1 33.5522V46.9254" stroke="#22D3EE" stroke-miterlimit="10"/>
    <path d="M2140.86 33.5522V46.9254" stroke="#22D3EE" stroke-miterlimit="10"/>
    <path d="M2145.47 29.7314V50.2688" stroke="#22D3EE" stroke-miterlimit="10"/>
    <path d="M2150.08 31.1641V49.3133" stroke="#22D3EE" stroke-miterlimit="10"/>
    <path d="M2155.84 26.8657V53.1344" stroke="#22D3EE" stroke-miterlimit="10"/>
    <path d="M2160.45 24.4775V55.5223" stroke="#22D3EE" stroke-miterlimit="10"/>
    <path d="M2165.06 27.3433V52.6567" stroke="#22D3EE" stroke-miterlimit="10"/>
    <path d="M2170.82 24.9553V55.0449" stroke="#22D3EE" stroke-miterlimit="10"/>
    <path d="M2175.43 31.6418V48.8359" stroke="#22D3EE" stroke-miterlimit="10"/>
    <path d="M2180.04 34.5076V45.9703" stroke="#22D3EE" stroke-miterlimit="10"/>
    <path d="M2185.81 32.5969V47.8805" stroke="#22D3EE" stroke-miterlimit="10"/>
    <path d="M2190.43 28.7761V51.2239" stroke="#22D3EE" stroke-miterlimit="10"/>
    <path d="M2195.04 24V56" stroke="#22D3EE" stroke-miterlimit="10"/>
    <path d="M2200.27 24V56" stroke="#22D3EE" stroke-miterlimit="10"/>
    <path d="M2205.08 27.3433V52.6567" stroke="#22D3EE" stroke-miterlimit="10"/>
    <path d="M2210.69 30.6865V49.791" stroke="#22D3EE" stroke-miterlimit="10"/>
    <path d="M2216.47 34.9851V45.4926" stroke="#22D3EE" stroke-miterlimit="10"/>
    <path d="M2221.08 35.4626V45.0149" stroke="#22D3EE" stroke-miterlimit="10"/>
    <path d="M2226.69 33.5522V46.9254" stroke="#22D3EE" stroke-miterlimit="10"/>
    <path d="M2231.3 30.6865V49.791" stroke="#22D3EE" stroke-miterlimit="10"/>
    <path d="M2236.01 29.2537V50.7462" stroke="#22D3EE" stroke-miterlimit="10"/>
    <path d="M2240.62 24.9553V55.0449" stroke="#22D3EE" stroke-miterlimit="10"/>
    <path d="M2245.23 27.3433V52.6567" stroke="#22D3EE" stroke-miterlimit="10"/>
    <path d="M2250.04 30.6865V49.791" stroke="#22D3EE" stroke-miterlimit="10"/>
    <path d="M2254.65 33.0747V47.4031" stroke="#22D3EE" stroke-miterlimit="10"/>
    <path d="M2259.26 24.9553V55.0449" stroke="#22D3EE" stroke-miterlimit="10"/>
    <path d="M2263.87 28.7761V51.2239" stroke="#22D3EE" stroke-miterlimit="10"/>
    <path d="M2269.58 31.6418V48.8359" stroke="#22D3EE" stroke-miterlimit="10"/>
    <path d="M2274.19 32.1194V48.3582" stroke="#22D3EE" stroke-miterlimit="10"/>
    <path d="M2278.8 34.0298V46.4477" stroke="#22D3EE" stroke-miterlimit="10"/>
    <path d="M2283.51 32.5969V47.8805" stroke="#22D3EE" stroke-miterlimit="10"/>
    <path d="M2288.12 33.5522V46.9254" stroke="#22D3EE" stroke-miterlimit="10"/>
    <path d="M2293.88 33.5522V46.9254" stroke="#22D3EE" stroke-miterlimit="10"/>
    <path d="M2298.49 29.7314V50.2688" stroke="#22D3EE" stroke-miterlimit="10"/>
    <path d="M2303.1 31.1641V49.3133" stroke="#22D3EE" stroke-miterlimit="10"/>
    <path d="M2308.86 26.8657V53.1344" stroke="#22D3EE" stroke-miterlimit="10"/>
    <path d="M2313.47 24.4775V55.5223" stroke="#22D3EE" stroke-miterlimit="10"/>
    <path d="M2318.08 27.3433V52.6567" stroke="#22D3EE" stroke-miterlimit="10"/>
    <path d="M2323.84 24.9553V55.0449" stroke="#22D3EE" stroke-miterlimit="10"/>
    <path d="M2328.45 31.6418V48.8359" stroke="#22D3EE" stroke-miterlimit="10"/>
    <path d="M2333.06 34.5076V45.9703" stroke="#22D3EE" stroke-miterlimit="10"/>
    <path d="M2338.83 32.5969V47.8805" stroke="#22D3EE" stroke-miterlimit="10"/>
    <path d="M2343.44 28.7761V51.2239" stroke="#22D3EE" stroke-miterlimit="10"/>
    <path d="M2348.05 24V56" stroke="#22D3EE" stroke-miterlimit="10"/>
    <path d="M2353.27 24V56" stroke="#22D3EE" stroke-miterlimit="10"/>
    <path d="M2358.08 27.3433V52.6567" stroke="#22D3EE" stroke-miterlimit="10"/>
    <path d="M2362.69 30.6865V49.791" stroke="#22D3EE" stroke-miterlimit="10"/>
    <path d="M2368.47 34.9851V45.4926" stroke="#22D3EE" stroke-miterlimit="10"/>
    <path d="M2373.08 35.4626V45.0149" stroke="#22D3EE" stroke-miterlimit="10"/>
    <path d="M2378.69 33.5522V46.9254" stroke="#22D3EE" stroke-miterlimit="10"/>
    <path d="M2383.3 30.6865V49.791" stroke="#22D3EE" stroke-miterlimit="10"/>
    <path d="M2388.01 29.2537V50.7462" stroke="#22D3EE" stroke-miterlimit="10"/>
    <path d="M2392.62 24.9553V55.0449" stroke="#22D3EE" stroke-miterlimit="10"/>
    <path d="M2397.23 27.3433V52.6567" stroke="#22D3EE" stroke-miterlimit="10"/>
    <path d="M2401.84 30.6865V49.791" stroke="#22D3EE" stroke-miterlimit="10"/>
    <path d="M2406.46 33.0747V47.4031" stroke="#22D3EE" stroke-miterlimit="10"/>
    <path d="M2411.07 24.9553V55.0449" stroke="#22D3EE" stroke-miterlimit="10"/>
<g opacity="0.07">
<line x1="167" y1="2.18557e-08" x2="167" y2="80" stroke="white"/>
<line x1="407" y1="2.18557e-08" x2="407" y2="80" stroke="white"/>
<line x1="647" y1="2.18557e-08" x2="647" y2="80" stroke="white"/>
<line x1="887" y1="2.18557e-08" x2="887" y2="80" stroke="white"/>
<line x1="1127" y1="2.18557e-08" x2="1127" y2="80" stroke="white"/>
</g>
</svg>
