<svg width="716" height="20" viewBox="0 0 716 20" fill="none" xmlns="http://www.w3.org/2000/svg">
<g clip-path="url(#clip0_763_2890)">
<path d="M16.8665 10.2C17.8047 9.2618 18.3318 7.98932 18.3318 6.6625C18.3318 5.33568 17.8047 4.0632 16.8665 3.125C15.9283 2.1868 14.6558 1.65972 13.329 1.65972C12.0022 1.65972 10.7297 2.1868 9.7915 3.125L4.1665 8.75V15.8333H11.2498L16.8665 10.2Z" stroke="#FAFAFA" stroke-width="1.5" stroke-linecap="round" stroke-linejoin="round"/>
<path d="M13.3332 6.66667L1.6665 18.3333" stroke="#FAFAFA" stroke-width="1.5" stroke-linecap="round" stroke-linejoin="round"/>
<path d="M14.5833 12.5H7.5" stroke="#FAFAFA" stroke-width="1.5" stroke-linecap="round" stroke-linejoin="round"/>
</g>
<path d="M34.6609 14.12C33.6769 14.12 32.8649 13.996 32.2249 13.748C31.5929 13.492 31.1209 13.144 30.8089 12.704C30.5049 12.264 30.3489 11.76 30.3409 11.192H32.8609C32.8689 11.448 32.9409 11.672 33.0769 11.864C33.2209 12.056 33.4329 12.204 33.7129 12.308C33.9929 12.412 34.3409 12.464 34.7569 12.464C35.2929 12.464 35.6969 12.384 35.9689 12.224C36.2409 12.064 36.3769 11.836 36.3769 11.54C36.3769 11.364 36.3449 11.22 36.2809 11.108C36.2169 10.996 36.1049 10.908 35.9449 10.844C35.7929 10.78 35.5889 10.728 35.3329 10.688C35.0849 10.648 34.7729 10.608 34.3969 10.568C33.7489 10.488 33.1849 10.388 32.7049 10.268C32.2249 10.14 31.8249 9.976 31.5049 9.776C31.1929 9.576 30.9569 9.324 30.7969 9.02C30.6369 8.716 30.5569 8.352 30.5569 7.928C30.5569 7.328 30.7209 6.824 31.0489 6.416C31.3769 6 31.8449 5.684 32.4529 5.468C33.0609 5.252 33.7849 5.144 34.6249 5.144C35.3929 5.144 36.0609 5.248 36.6289 5.456C37.2049 5.656 37.6569 5.956 37.9849 6.356C38.3209 6.748 38.5129 7.232 38.5609 7.808H36.1129C36.0889 7.56 36.0049 7.364 35.8609 7.22C35.7249 7.068 35.5409 6.956 35.3089 6.884C35.0849 6.812 34.8249 6.776 34.5289 6.776C34.2169 6.776 33.9489 6.812 33.7249 6.884C33.5009 6.948 33.3289 7.048 33.2089 7.184C33.0969 7.312 33.0409 7.464 33.0409 7.64C33.0409 7.856 33.0969 8.02 33.2089 8.132C33.3209 8.244 33.5209 8.332 33.8089 8.396C34.1049 8.452 34.5169 8.508 35.0449 8.564C35.7089 8.644 36.2809 8.744 36.7609 8.864C37.2489 8.976 37.6489 9.136 37.9609 9.344C38.2729 9.552 38.5009 9.82 38.6449 10.148C38.7969 10.468 38.8729 10.868 38.8729 11.348C38.8729 11.924 38.7089 12.42 38.3809 12.836C38.0609 13.252 37.5889 13.572 36.9649 13.796C36.3409 14.012 35.5729 14.12 34.6609 14.12ZM44.7172 14.12C43.9252 14.12 43.2172 14.016 42.5932 13.808C41.9692 13.592 41.4412 13.284 41.0092 12.884C40.5852 12.484 40.2612 12.012 40.0372 11.468C39.8132 10.916 39.7012 10.3 39.7012 9.62C39.7012 8.94 39.8092 8.324 40.0252 7.772C40.2492 7.22 40.5772 6.748 41.0092 6.356C41.4412 5.964 41.9692 5.664 42.5932 5.456C43.2172 5.24 43.9252 5.132 44.7172 5.132C45.6292 5.132 46.4172 5.268 47.0812 5.54C47.7452 5.804 48.2732 6.172 48.6652 6.644C49.0652 7.116 49.3052 7.672 49.3852 8.312H46.9492C46.8852 8.056 46.7452 7.832 46.5292 7.64C46.3132 7.448 46.0492 7.3 45.7372 7.196C45.4332 7.092 45.0932 7.04 44.7172 7.04C44.2052 7.04 43.7532 7.136 43.3612 7.328C42.9692 7.512 42.6652 7.796 42.4492 8.18C42.2412 8.556 42.1372 9.036 42.1372 9.62C42.1372 10.06 42.1972 10.44 42.3172 10.76C42.4452 11.08 42.6212 11.348 42.8452 11.564C43.0692 11.78 43.3372 11.94 43.6492 12.044C43.9692 12.148 44.3292 12.2 44.7292 12.2C45.0972 12.2 45.4372 12.148 45.7492 12.044C46.0692 11.94 46.3372 11.792 46.5532 11.6C46.7692 11.408 46.9092 11.184 46.9732 10.928H49.3852C49.3132 11.568 49.0652 12.128 48.6412 12.608C48.2172 13.088 47.6652 13.46 46.9852 13.724C46.3132 13.988 45.5572 14.12 44.7172 14.12ZM50.6505 14V5.252H55.8945C56.3665 5.252 56.8105 5.296 57.2265 5.384C57.6425 5.472 58.0065 5.62 58.3185 5.828C58.6305 6.028 58.8745 6.3 59.0505 6.644C59.2345 6.98 59.3265 7.396 59.3265 7.892C59.3265 8.404 59.1865 8.856 58.9065 9.248C58.6265 9.64 58.2305 9.9 57.7185 10.028V10.112C58.1825 10.192 58.5265 10.372 58.7505 10.652C58.9825 10.932 59.0985 11.324 59.0985 11.828V12.944C59.0985 13.112 59.1025 13.284 59.1105 13.46C59.1265 13.636 59.1745 13.816 59.2545 14H56.8185C56.7705 13.888 56.7345 13.748 56.7105 13.58C56.6865 13.412 56.6745 13.204 56.6745 12.956V12.152C56.6745 11.92 56.6385 11.724 56.5665 11.564C56.5025 11.404 56.3825 11.28 56.2065 11.192C56.0305 11.104 55.7785 11.06 55.4505 11.06H53.0745V14H50.6505ZM53.0745 9.332H55.4145C55.9745 9.332 56.3545 9.224 56.5545 9.008C56.7625 8.792 56.8665 8.508 56.8665 8.156C56.8665 7.876 56.8065 7.66 56.6865 7.508C56.5665 7.348 56.3945 7.236 56.1705 7.172C55.9545 7.108 55.7025 7.076 55.4145 7.076H53.0745V9.332ZM60.5482 14V5.252H62.9722V14H60.5482ZM64.6333 14V5.252H69.7213C70.4413 5.252 71.0213 5.34 71.4613 5.516C71.9013 5.692 72.2213 5.948 72.4213 6.284C72.6213 6.62 72.7213 7.028 72.7213 7.508C72.7213 7.828 72.6613 8.12 72.5413 8.384C72.4293 8.648 72.2653 8.868 72.0493 9.044C71.8413 9.22 71.5893 9.336 71.2933 9.392V9.488C71.6533 9.552 71.9573 9.672 72.2053 9.848C72.4613 10.024 72.6533 10.256 72.7813 10.544C72.9173 10.832 72.9853 11.164 72.9853 11.54C72.9853 12.092 72.8533 12.548 72.5893 12.908C72.3253 13.268 71.9373 13.54 71.4253 13.724C70.9213 13.908 70.3093 14 69.5893 14H64.6333ZM67.0453 12.344H69.1573C69.6853 12.344 70.0493 12.248 70.2493 12.056C70.4573 11.864 70.5613 11.62 70.5613 11.324C70.5613 10.98 70.4453 10.728 70.2133 10.568C69.9893 10.408 69.6493 10.328 69.1933 10.328H67.0453V12.344ZM67.0453 8.732H69.0973C69.4013 8.732 69.6413 8.696 69.8173 8.624C70.0013 8.544 70.1333 8.436 70.2133 8.3C70.2933 8.156 70.3333 7.988 70.3333 7.796C70.3333 7.476 70.2133 7.252 69.9733 7.124C69.7413 6.988 69.4373 6.92 69.0613 6.92H67.0453V8.732ZM74.1677 14V5.252H81.7037V7.16H76.0877L76.5917 6.644V9.2L76.0997 8.708H81.1037V10.484H76.0997L76.5917 9.992V12.596L76.0877 12.092H81.7397V14H74.1677ZM85.5542 14V13.628C85.5542 13.156 85.6422 12.74 85.8182 12.38C85.9942 12.012 86.2262 11.688 86.5142 11.408C86.8022 11.128 87.1182 10.876 87.4622 10.652C87.8142 10.428 88.1622 10.22 88.5062 10.028C88.8582 9.828 89.1782 9.632 89.4662 9.44C89.7622 9.24 89.9942 9.032 90.1622 8.816C90.3382 8.6 90.4262 8.356 90.4262 8.084C90.4262 7.844 90.3662 7.648 90.2462 7.496C90.1342 7.344 89.9902 7.232 89.8142 7.16C89.6382 7.088 89.4582 7.052 89.2742 7.052C88.9782 7.052 88.7262 7.104 88.5182 7.208C88.3182 7.312 88.1622 7.46 88.0502 7.652C87.9462 7.836 87.8782 8.056 87.8462 8.312H85.5902C85.6542 7.616 85.8422 7.044 86.1542 6.596C86.4662 6.14 86.8902 5.804 87.4262 5.588C87.9622 5.364 88.6022 5.252 89.3462 5.252C90.0822 5.252 90.7062 5.368 91.2182 5.6C91.7302 5.832 92.1182 6.156 92.3822 6.572C92.6542 6.988 92.7902 7.476 92.7902 8.036C92.7902 8.404 92.7262 8.736 92.5982 9.032C92.4702 9.32 92.2982 9.584 92.0822 9.824C91.8742 10.064 91.6382 10.28 91.3742 10.472C91.1182 10.664 90.8502 10.84 90.5702 11C90.2982 11.16 90.0342 11.308 89.7782 11.444C89.5222 11.58 89.2942 11.712 89.0942 11.84C88.9022 11.968 88.7582 12.096 88.6622 12.224H92.8022V14H85.5542ZM93.9993 14V12.212H96.2673V14H93.9993ZM101.917 14.108C101.245 14.108 100.629 14.012 100.069 13.82C99.517 13.62 99.041 13.332 98.641 12.956C98.241 12.572 97.933 12.108 97.717 11.564C97.509 11.012 97.405 10.38 97.405 9.668C97.405 8.964 97.513 8.34 97.729 7.796C97.945 7.244 98.249 6.78 98.641 6.404C99.041 6.028 99.517 5.744 100.069 5.552C100.629 5.352 101.249 5.252 101.929 5.252C102.609 5.252 103.225 5.352 103.777 5.552C104.337 5.744 104.817 6.028 105.217 6.404C105.617 6.78 105.921 7.244 106.129 7.796C106.345 8.34 106.453 8.968 106.453 9.68C106.453 10.384 106.345 11.012 106.129 11.564C105.913 12.116 105.605 12.58 105.205 12.956C104.813 13.332 104.337 13.62 103.777 13.82C103.225 14.012 102.605 14.108 101.917 14.108ZM101.929 12.224C102.249 12.224 102.541 12.176 102.805 12.08C103.077 11.984 103.309 11.836 103.501 11.636C103.693 11.428 103.837 11.164 103.933 10.844C104.037 10.524 104.089 10.136 104.089 9.68C104.089 9.224 104.037 8.836 103.933 8.516C103.837 8.196 103.693 7.936 103.501 7.736C103.309 7.528 103.077 7.376 102.805 7.28C102.541 7.184 102.249 7.136 101.929 7.136C101.601 7.136 101.301 7.184 101.029 7.28C100.765 7.376 100.541 7.528 100.357 7.736C100.173 7.936 100.029 8.196 99.925 8.516C99.821 8.836 99.769 9.224 99.769 9.68C99.769 10.136 99.817 10.524 99.913 10.844C100.017 11.164 100.165 11.428 100.357 11.636C100.549 11.836 100.773 11.984 101.029 12.08C101.293 12.176 101.593 12.224 101.929 12.224Z" fill="#FAFAFA"/>
<defs>
<clipPath id="clip0_763_2890">
<rect width="20" height="20" fill="white"/>
</clipPath>
</defs>
</svg>
